v -150.65733337 40.89997101 16.66243935
v -146.89758301 30.59836388 17.27295876
v -157.17518616 27.92185593 20.17217636
v -160.89019775 40.12494659 17.79133224
v -139.26350403 7.57911062 21.20170021
v -136.44982910 -2.24319839 14.67920113
v -149.37313843 -3.87759495 18.43950081
v -150.29937744 3.51735210 24.69331741
v -169.40255737 37.80841827 17.82858276
v -164.49942017 24.79817009 22.79665756
v -173.16212463 31.56641960 16.06172562
v -171.62260437 49.48572159 6.99842548
v -169.90660095 50.47946930 12.04816437
v -170.69844055 61.65145111 3.95752668
v -165.40142822 47.19638824 -0.28088316
v -164.57464600 66.32861328 -0.44510141
v -136.23114014 59.01029587 -2.90587354
v -124.56823730 60.35332489 1.34183276
v -132.19688416 75.43377686 5.11911488
v -143.51638794 72.86858368 0.77423453
v -117.46363831 69.19026184 14.47294617
v -126.48280334 73.74359131 9.71174622
v -117.87110901 58.65279007 4.39577198
v -110.18684387 55.36226273 9.00155449
v -133.16105652 39.87430573 18.89467239
v -128.17109680 30.44620895 18.79395103
v -134.87477112 31.42011261 17.14542770
v -138.90806580 39.91325760 17.33454132
v -177.11627197 11.62751770 14.16780090
v -168.53405762 22.66369057 4.52824306
v -172.28717041 28.64134216 9.23180199
v -177.51277161 12.94643402 18.35032272
v -108.70344543 4.92966175 24.66582108
v -102.14467621 -5.54182386 19.08480453
v -106.43894196 -6.03659439 16.34955215
v -111.48416901 4.53752279 22.01621628
v -123.40406036 -5.02538681 10.28815460
v -117.85433960 -9.34062195 7.23136568
v -119.18786621 -14.63326836 -4.38390303
v -126.02883911 -9.20815754 -3.02292395
v -129.56781006 -2.03410530 12.70555019
v -131.80566406 -6.71843433 2.12470078
v -137.70971680 -5.42969990 5.22025299
v -150.86585999 -6.98753452 10.69548130
v -91.90480042 -2.66787410 22.87948418
v -95.63483429 4.86554956 27.71755028
v -191.74992371 97.52529144 27.01422501
v -188.21516418 97.54163361 30.85943031
v -186.06838989 96.85139465 28.56032181
v -189.80964661 97.25801086 25.07982445
v -82.37147522 11.30184555 18.07812309
v -80.07462311 15.61262417 10.60467529
v -76.22533417 8.60348320 10.76636600
v -79.42906952 3.92603874 16.92324638
v -86.69650269 20.77371597 19.67384720
v -86.08374786 24.87960434 10.63680077
v -194.78091431 108.51335907 23.95073700
v -195.90078735 103.92710114 23.95224953
v -192.86067200 104.72351074 20.12749290
v -190.88441467 109.15213776 19.68371964
v -163.64530945 51.23649597 15.43376064
v -154.48214722 50.68734360 17.84147453
v -168.23077393 71.72971344 17.52862549
v -161.51730347 63.82519150 17.79124069
v -166.49349976 60.90568924 13.63047314
v -170.41831970 68.55783081 12.54185295
v -140.71636963 62.47989273 24.62793541
v -135.27424622 51.24285507 21.79574394
v -141.16709900 52.19715500 19.48053360
v -148.29423523 63.97569275 22.36166191
v -125.03439331 50.30318832 29.68881416
v -131.35136414 61.56572723 31.53351784
v -124.81762695 59.75014114 35.82562256
v -121.81347656 51.81704712 34.27868652
v -142.51261902 82.88143921 30.82303238
v -145.62347412 93.00449371 29.30980873
v -142.60493469 93.75672150 29.88579941
v -139.60342407 82.73633575 32.17546082
v -72.41974640 1.94945931 9.90584755
v -77.43175507 -3.28484178 14.91725445
v -102.54718018 63.34019470 25.61697769
v -98.15759277 56.34557724 32.41817856
v -101.29761505 69.65589905 37.14856720
v -105.59144592 73.11763763 28.79771233
v -83.56380463 19.21919060 2.65170455
v -77.77410126 12.87431240 2.89569044
v -191.28056335 112.37501526 26.22961617
v -187.69804382 113.34101868 22.33621788
v -140.21875000 -0.69048256 -4.84508276
v -154.62705994 -3.57139111 3.34940863
v -130.38594055 -2.50083208 -8.84510612
v -123.21983337 -5.28882456 -11.23865891
v -117.75659180 -10.91295433 -13.84053707
v -158.59521484 69.20224762 20.57612610
v -145.13545227 48.12372208 17.89842606
v -128.65138245 39.60238647 21.29167366
v -108.77896118 41.67853546 39.98661041
v -104.41263580 31.05943680 37.75450516
v -113.58515167 33.75332260 34.51688766
v -115.20884705 42.84825134 36.65529251
v -100.51690674 53.13446426 39.98209381
v -107.00762177 52.80297089 42.70335388
v -109.70262146 62.70336914 45.07108307
v -103.46900940 64.84314728 42.94553375
v -175.58079529 5.42848539 9.68800068
v -165.21304321 16.02348709 0.82872438
v -87.24620819 6.87967253 24.16036224
v -85.80506897 -0.24644285 21.42360115
v -82.08576202 -7.37355661 17.90612221
v -119.48855591 18.42285728 21.74672508
v -113.58174896 4.32774448 20.15884209
v -117.32907867 4.80059528 18.56475449
v -122.54444122 19.67914391 19.98017502
v -138.72312927 21.40724373 19.99176979
v -129.39341736 9.44348431 18.42263222
v -148.71148682 17.72781181 23.99136543
v -111.43036652 -8.32305145 12.38506031
v -101.92424011 -15.80151176 13.15642738
v -107.75623322 -17.28985405 8.18206024
v -94.29715729 -13.55859661 16.72464371
v -87.26423645 -10.58070374 18.87785721
v -71.12184906 6.86774397 0.44616312
v -112.61100769 -17.21624947 2.43639398
v -159.59779358 0.79504400 25.70189667
v -166.72966003 -3.30406046 27.01344681
v -171.27137756 3.87852645 27.56306648
v -164.38693237 9.19558144 26.82197189
v -171.44175720 73.37207794 3.09982347
v -172.81198120 69.98923492 8.10940933
v -170.70870972 58.70225525 8.64715099
v -110.14173889 15.61934471 29.54693604
v -99.20135498 14.89830017 32.09926605
v -165.90155029 77.35272980 20.25527763
v -186.69226074 106.44766998 16.07513428
v -189.05139160 101.70904541 16.60695839
v -177.56181335 87.46746063 8.07710361
v -174.84732056 92.90634155 7.01708698
v -166.22856140 89.08889008 21.01708603
v -168.53327942 82.27619171 21.48147202
v -169.48927307 84.86987305 21.76275444
v -167.95953369 90.63212585 23.60978699
v -135.90403748 90.11054230 34.10531235
v -133.00169373 80.86318970 36.11360931
v -150.50242615 86.10116577 7.14132357
v -157.83587646 81.77378082 -0.54288656
v -154.01527405 69.80168915 -1.95862913
v -134.81227112 61.43200302 27.84936333
v -138.96768188 71.89859772 30.56440926
v -135.92768860 71.88343811 32.65890503
v -157.60540771 74.03856659 21.83673096
v -162.47758484 82.18286896 21.76127625
v -157.19485474 80.78645325 22.88941956
v -152.70332336 73.07306671 23.48568726
v -93.69792175 43.33646393 27.14672661
v -95.92042542 39.76396942 36.29851913
v -194.67407227 99.89663696 24.77396202
v -192.33351135 100.15472412 21.98431206
v -129.46733093 50.38856125 25.20179939
v -147.26390076 56.08710480 -4.08072758
v -124.26174927 39.25746155 23.97459602
v -120.42810822 84.13584900 28.26544952
v -120.23922729 85.41153717 33.60209656
v -124.06544495 90.84969330 33.32444382
v -123.04416656 91.61842346 28.54068947
v -176.85757446 101.73194122 29.69041061
v -179.68943787 97.82775116 30.26928711
v -182.14006042 99.60489655 31.11896324
v -179.81896973 104.38356781 31.47181511
v -171.36370850 78.30349731 18.72633743
v -173.78909302 75.73437500 14.03441048
v -176.29255676 81.04658508 16.33885384
v -173.03244019 82.92132568 19.80775833
v -175.11631775 77.87215424 9.21819878
v -177.75038147 83.00517273 11.42824650
v -176.05148315 106.86523438 27.06727409
v -178.88735962 110.82394409 22.22039795
v -167.24217224 98.52610016 14.30200863
v -167.45376587 96.89810181 20.91626167
v -102.87792969 41.55813217 3.32064557
v -95.69739532 39.46653366 9.92952061
v -102.88104248 53.03132629 15.90769577
v -109.00691986 66.50055695 21.30307579
v -115.16448975 78.17733002 27.02840424
v -122.20315552 80.10604095 19.18995285
v -97.27178192 50.04255676 19.90930748
v -157.71388245 92.50275421 15.07800198
v -159.41310120 90.24754333 9.57868958
v -153.59518433 90.81118011 10.31530094
v -119.64546204 39.08860016 28.75931931
v -189.07991028 97.32146454 19.18482971
v -111.56476593 7.53705215 -18.27450752
v -101.68964386 12.28797436 -15.14927483
v -108.07740021 18.83506775 -13.63528728
v -118.89288330 13.62550259 -16.69259453
v -183.94007874 94.62342834 27.83415604
v -187.28175354 94.09973145 23.49391556
v -127.82196808 82.66681671 39.16166687
v -131.08090210 90.11661530 36.28330994
v -128.72929382 91.90884399 36.37316895
v -124.34317780 86.27277374 41.37177658
v -91.89646149 36.63971329 12.79846382
v -103.54420471 78.53044891 38.68578339
v -106.85414124 80.44233704 32.59235764
v -89.47100067 27.73110580 4.43463564
v -95.43018341 29.53939056 -1.61023438
v -89.79067993 20.97775841 -4.58700037
v -134.28300476 87.77260590 15.15360546
v -109.77108765 44.53583145 -0.22546016
v -101.52993774 31.19716072 -4.74924612
v -95.12261963 21.09151268 -8.16698360
v -89.95851898 14.15687752 -11.09716702
v -84.89006805 14.70185089 -6.26229858
v -182.99406433 110.03291321 18.77565765
v -183.18852234 114.36515045 26.47329903
v -78.13475800 8.32767010 -9.29337692
v -84.66547394 7.55884504 -14.23735142
v -109.66571045 31.29219246 -7.71847916
v -118.94931030 31.39359474 -11.54508972
v -116.41527557 44.55170441 -3.48376298
v -126.51246643 45.37432861 -6.50392294
v -138.37646484 85.08335114 7.27547312
v -191.98037720 108.99669647 42.02489090
v -184.01152039 110.43857574 33.92489243
v -182.91520691 105.26271057 34.57589340
v -189.99484253 105.85996246 43.02960587
v -179.90936279 109.56297302 30.02603531
v -186.83689880 113.18350220 30.53024673
v -139.66896057 41.13995361 -7.92351198
v -160.43421936 89.93564606 21.63626671
v -132.95457458 24.48773384 -12.44806099
v -157.30400085 36.09530640 -5.07802153
v -151.33610535 22.64609146 -6.70611668
v -125.92082977 6.98125362 -15.39553547
v -140.28424072 8.96307087 -11.05317688
v -113.31069183 -4.38752031 -18.67560577
v -119.16603088 2.54447746 -16.91756439
v -153.95426941 6.80647039 -4.42434120
v -195.95152283 96.59750366 35.92696762
v -191.92236328 97.49117279 38.99745941
v -105.90956116 1.00414455 -20.31567001
v -157.52270508 14.05097961 25.95177650
v -117.10221863 27.89910126 27.10211754
v -120.67681885 28.98390579 23.44770050
v -102.20229340 24.60899925 35.82821274
v -112.17838287 25.65260315 32.27414322
v -199.56359863 98.61492157 33.38750839
v -144.86344910 98.25911713 26.59127235
v -142.50509644 96.16832733 26.14301491
v -157.32490540 -6.52132177 20.98269653
v -163.86369324 -9.03693199 22.51429176
v -169.99145508 -9.38981056 12.22096348
v -166.23629761 -11.78797340 17.17271996
v -158.34376526 -9.36667633 13.78601074
v -161.73373413 -7.27694464 8.30882072
v -117.25601196 17.55558777 23.44963837
v -114.64543915 17.34199333 25.70051193
v -90.16445160 31.14891815 23.46561050
v -93.02134705 28.25500870 32.58440781
v -173.15495300 81.46237183 5.27908850
v -165.94265747 79.12017822 0.28091669
v -169.13914490 86.02999115 3.63727474
v -169.71217346 95.71531677 8.35962009
v -160.43534851 93.91562653 19.14748573
v -163.62203979 91.57966614 17.94705009
v -123.60790253 7.63182354 18.58954620
v -129.49205017 21.63684464 18.73407364
v -169.41027832 18.77789879 23.94959450
v -175.49195862 10.69142628 24.47976875
v -145.85194397 71.00229645 26.25656128
v -139.79612732 96.37938690 15.52470398
v -143.16036987 94.73949432 9.31728268
v -150.09541321 80.95675659 26.56164742
v -201.57904053 106.01500702 33.71079636
v -201.33753967 101.59859467 32.92500687
v -163.86389160 88.89830017 4.40068531
v -129.59956360 70.85601044 37.40063477
v -134.26843262 90.68073273 18.95241547
v -141.01075745 98.45298767 21.35001373
v -105.23312378 71.97123718 44.03887558
v -96.00561523 4.75728512 -17.70713234
v -184.41165161 100.25319672 34.31525040
v -189.08822632 100.33978271 41.22928619
v -194.21711731 110.58359528 39.33089828
v -197.97869873 109.90492249 35.25152969
v -91.21337891 17.76155090 28.70619202
v -123.67718506 30.11071014 21.25469208
v -163.86415100 1.82192028 2.95141149
v -172.96145630 -2.82592320 9.13032913
v -152.61640930 89.17424011 26.02943993
v -114.25901794 82.61048126 31.06244469
v -124.40839386 87.72960663 21.32466507
v -125.40604401 94.44103241 21.63266373
v -131.31533813 97.00985718 19.58893585
v -137.88310242 99.44745636 21.88311005
v -197.70684814 108.88517761 44.02301788
v -201.22131348 108.42099762 39.87037659
v -204.19364929 104.73687744 37.28399277
v -203.63464355 100.87120819 35.94343948
v -200.89999390 97.97909546 35.89017868
v -195.25689697 106.80861664 46.74919510
v -193.21726990 103.82444763 47.06712723
v -190.93641663 99.88138580 43.87123871
v -197.15759277 103.27844238 50.18084335
v -202.38052368 103.86349487 50.36956024
v -209.63534546 93.50958252 45.11363602
v -208.22331238 99.23429108 42.92403793
v -208.77638245 98.42861176 45.66762924
v -210.00445557 93.71848297 48.22019196
v -211.34672546 89.73609161 52.08178329
v -211.34182739 88.87334442 48.75188065
v -206.34429932 102.04315186 47.07369232
v -208.00608826 96.00878143 51.17985535
v -205.21572876 96.86389923 53.63509369
v -207.36555481 92.06813812 56.81371689
v -210.00900269 91.35765076 54.99285889
v -204.43598938 101.08985138 50.92313004
v -205.75193787 104.47482300 45.49209595
v -211.69799805 86.33239746 52.82821655
v -212.04730225 87.93779755 54.39005661
v -210.64335632 88.58275604 56.79620743
v -210.38174438 85.97138214 57.24572372
v -205.31816101 97.97589111 38.43235397
v -208.65258789 91.81851196 43.58099365
v -209.13928223 87.26470947 47.91242599
v -209.64810181 84.96718597 51.99948120
v -205.80928040 89.33990479 44.31811905
v -206.55032349 86.47048187 48.04604340
v -206.53593445 84.70793152 51.69868088
v -202.48997498 88.23600769 46.03479004
v -203.90933228 86.22599792 49.30707550
v -198.34896851 95.62748718 38.75426102
v -201.45988464 96.79720306 36.69501877
v -204.41600037 84.66732788 51.28749084
v -208.74331665 84.74250793 57.05214691
v -201.80862427 98.15233612 53.92909241
v -204.53425598 91.57465363 57.04446793
v -199.67167664 97.25474548 53.87290573
v -202.42372131 91.10404205 57.36291504
v -207.07890320 88.10637665 59.25194550
v -208.49069214 89.34284973 57.99730682
v -196.66519165 96.70275879 37.54419708
v -192.45732117 97.64672089 40.87551498
v -193.82646179 96.68528748 42.09764099
v -198.84654236 89.17578888 48.51163101
v -192.60981750 98.29098511 45.54531097
v -195.01991272 100.21206665 49.75348663
v -198.21202087 94.75509644 53.58754349
v -197.42097473 92.15608215 51.92679214
v -200.76498413 89.99311829 56.06179428
v -200.37350464 88.73966217 54.16673279
v -201.35630798 86.64040375 51.45051193
v -203.32485962 86.63736725 56.81539154
v -205.34780884 87.36680603 58.61988831
v -205.81538391 84.64244080 55.28998947
v -202.08317566 86.55443573 55.36080933
v -203.84495544 85.37459564 53.54891586
v -168.94403076 126.05360413 25.67971420
v -165.17433167 127.05558777 29.92001343
v -161.99302673 125.02266693 26.75057793
v -165.44091797 124.37121582 23.64572906
v -167.58813477 134.86651611 16.27234650
v -170.15045166 130.90336609 19.09429741
v -166.40515137 128.82116699 15.62711430
v -162.65519714 132.63693237 13.02112484
v -162.37477112 137.95568848 17.10245323
v -157.34602356 135.27606201 13.82905960
v -160.13429260 126.53480530 11.44035625
v -164.04153442 123.22336578 15.38174915
v -157.54450989 100.85683441 14.42124367
v -153.30195618 103.72158813 9.97606564
v -150.55590820 99.79852295 27.87815475
v -148.43098450 102.28013611 26.21780205
v -170.29795837 127.59266663 22.52339172
v -166.79219055 125.91629028 20.01914024
v -153.68455505 123.22575378 28.07087135
v -157.65106201 121.37669373 29.18879700
v -158.91368103 126.05052948 29.31508064
v -155.57252502 129.59840393 28.18343163
v -158.44059753 97.31625366 21.34899712
v -154.59933472 97.55190277 25.13319778
v -158.66757202 99.08973694 18.27323151
v -150.13763428 126.38975525 24.32926369
v -149.55703735 128.59407043 18.60556984
v -142.96797180 107.31490326 15.63397980
v -143.87005615 106.46733093 21.26295662
v -165.28153992 121.29020691 19.84399414
v -161.87915039 120.70103455 27.41131210
v -164.66661072 120.21325684 24.46922302
v -154.05072021 127.75768280 13.00984669
v -153.45491028 135.86535645 20.13346863
v -168.89666748 142.23538208 34.94196320
v -158.46607971 136.85836792 28.79014587
v -159.74681091 133.18855286 31.28898430
v -169.37055969 139.15022278 37.87464905
v -153.49716187 133.52519226 25.27857971
v -158.95562744 138.40750122 23.54808807
v -178.59396362 131.67768860 34.36006546
v -174.52200317 132.87847900 38.31358719
v -180.78353882 132.90113831 31.20853806
v -146.84796143 106.17010498 10.37178993
v -178.00238037 139.14559937 25.24264908
v -180.74555969 134.94572449 28.24569511
v -161.72935486 129.05392456 31.90459251
v -171.35144043 135.73966980 39.50326157
v -169.93035889 143.37811279 31.34713745
v -172.79322815 141.87292480 25.67677307
v -175.03538513 145.18109131 34.46009827
v -178.35305786 143.87678528 30.22669792
v -182.61782837 140.40957642 29.15841103
v -183.54090881 135.89083862 30.78393173
v -182.26904297 133.52807617 32.75788879
v -173.83804321 144.09175110 37.75370407
v -173.23440552 141.04145813 40.18140793
v -173.67141724 136.77452087 40.40066528
v -178.47129822 141.93484497 43.20783997
v -181.47502136 144.12922668 41.09496307
v -195.96025085 130.86453247 43.62079239
v -192.37550354 133.90744019 39.06808472
v -192.38169861 135.91384888 40.39022827
v -195.47209167 133.20199585 44.73391724
v -189.15382385 138.34846497 35.24504089
v -189.61378479 139.01106262 37.41091537
v -186.49545288 142.16394043 38.71918869
v -189.96726990 138.35131836 43.08840179
v -186.63186646 139.93157959 45.46538544
v -190.39474487 137.36346436 49.64617920
v -194.05702209 136.02220154 47.64731216
v -184.99118042 142.45504761 41.86401367
v -197.11482239 132.05331421 47.87942123
v -197.79092407 129.83773804 48.77297974
v -185.02928162 143.99369812 36.18429565
v -186.41255188 135.05642700 32.77080154
v -191.89717102 131.07791138 39.00572586
v -195.09951782 128.16618347 44.24232864
v -196.26170349 128.02235413 50.09399033
v -190.00962830 128.42762756 40.90055084
v -193.08413696 126.64118195 45.74483871
v -193.90141296 127.27458954 50.39623642
v -186.88854980 127.13462067 43.48109436
v -190.13458252 126.22463989 48.13813400
v -180.36129761 131.46417236 36.04023743
v -183.85774231 132.07031250 33.65644455
v -191.59397888 126.84518433 50.03433228
v -196.74232483 132.33932495 52.06886673
v -195.38154602 129.77647400 53.23151398
v -196.23408508 133.39991760 50.77455521
v -184.85432434 139.89761353 46.42388153
v -189.11708069 136.34667969 50.80318069
v -183.14039612 138.38458252 47.83982086
v -188.31539917 134.65269470 52.12461853
v -192.96311951 134.03096008 53.35385895
v -193.76451111 134.59025574 52.28753662
v -179.46113586 133.03550720 35.33373642
v -175.68727112 134.24285889 38.74533081
v -176.41717529 132.96231079 39.14471054
v -183.54542542 129.19590759 46.46340942
v -174.61737061 136.00361633 41.46868896
v -176.50335693 139.19578552 43.50211716
v -181.69290161 136.34024048 48.31137848
v -181.85374451 132.68846130 48.34000397
v -186.83464050 133.70024109 52.99504471
v -185.38749695 131.67909241 51.55052567
v -187.15042114 127.78334045 50.07068253
v -190.88163757 131.41069031 54.82024765
v -192.34848022 132.84809875 54.28088760
v -193.60658264 128.80038452 53.04836273
v -188.71966553 130.21011353 53.59756851
v -190.79232788 127.89310455 52.11326218
v -146.16835022 122.37112427 31.60043144
v -143.60685730 121.23355865 36.10605240
v -141.65910339 119.86039734 34.86227036
v -144.23939514 121.12420654 30.74623299
v -140.14414978 129.82847595 25.83543968
v -144.31556702 128.07226562 26.52440262
v -141.48054504 125.41107941 23.95621681
v -136.52156067 126.09195709 22.28896904
v -136.59461975 131.49783325 29.07107544
v -131.09919739 126.70932770 24.30570221
v -134.50601196 120.71168518 20.51762199
v -139.78889465 121.52406311 22.84427834
v -137.58468628 104.55565643 21.86252403
v -132.05957031 104.45211792 19.34375381
v -145.98979187 125.02693939 28.62212944
v -143.98794556 123.19528198 27.34763145
v -133.93269348 116.95211029 37.78535843
v -137.46455383 116.46739960 37.27346802
v -138.19499207 120.24098969 37.92240906
v -134.97357178 121.74272156 38.31940842
v -141.57794189 99.00054169 29.91840553
v -137.25122070 96.51592255 33.11084366
v -140.87423706 102.77828979 26.21620941
v -129.31797791 118.64321136 35.16507721
v -126.39822388 119.75179291 29.24450493
v -123.82157898 102.07979584 28.07427597
v -125.88974762 100.07411957 32.56645584
v -142.62739563 120.50805664 26.46164513
v -141.44099426 116.66819763 34.59361267
v -143.64721680 118.43254852 30.56274223
v -129.62171936 119.76189423 23.23018456
v -129.20166016 126.46232605 31.01859665
v -144.72311401 136.93165588 45.44084549
v -133.14028931 127.13441467 37.94796753
v -136.39736938 123.44774628 39.69829941
v -145.79962158 133.61708069 47.13992691
v -131.06010437 124.33129120 36.29433823
v -132.86880493 129.82562256 33.72220230
v -155.31849670 129.89183044 39.73089981
v -152.12969971 129.07550049 43.52486038
v -154.99768066 132.05413818 36.49714279
v -126.23907471 103.43875885 21.26006126
v -130.70700073 97.16119385 34.81553650
v -152.24122620 137.80204773 34.80944061
v -154.34242249 134.62634277 35.05235672
v -139.75300598 121.64505005 38.96879196
v -148.27468872 130.49903870 46.69574738
v -144.56855774 139.01910400 41.69401550
v -147.21601868 139.19606018 36.66400146
v -149.15258789 141.37681580 45.26961899
v -152.15269470 141.80723572 40.40423203
v -156.49748230 139.91627502 37.84024048
v -157.77754211 135.96197510 37.48562622
v -157.83700562 133.07333374 38.42176437
v -148.83668518 137.79153442 48.34188080
v -149.31097412 134.30010986 48.86991119
v -149.57719421 131.08709717 46.42449570
v -152.09075928 136.58688354 50.91593552
v -155.21865845 140.66430664 49.52845001
v -172.47619629 134.09500122 50.07859039
v -167.60784912 135.86999512 46.16956711
v -167.13404846 136.58563232 46.95510483
v -172.01832581 135.30763245 50.91291809
v -162.09075928 139.40930176 42.81123352
v -162.96946716 139.25358582 44.56134796
v -159.96208191 140.80618286 46.48044205
v -165.10354614 138.57795715 50.75710297
v -160.40676880 137.05990601 53.65528870
v -165.36239624 135.41317749 56.23236465
v -169.97256470 137.04421997 54.19552612
v -157.45951843 139.98481750 49.77503586
v -173.98800659 134.65223694 53.59229660
v -175.78129578 133.98129272 52.94963837
v -157.95845032 142.13945007 44.90647888
v -162.32637024 135.90753174 40.08281708
v -168.25044250 133.51878357 44.83052826
v -173.16123962 131.59844971 48.45571899
v -175.07713318 130.69322205 52.28204727
v -167.27038574 130.29512024 45.14424515
v -171.43421936 129.24934387 48.58742142
v -173.22230530 128.48988342 52.02375031
v -165.60459900 128.24374390 46.46846008
v -169.14195251 127.62929535 49.65852737
v -157.92478943 130.48338318 41.08443451
v -160.67491150 132.65650940 39.86304474
v -171.02413940 127.63690948 52.03804779
v -174.04345703 134.36949158 56.85361481
v -173.34645081 130.50216675 57.03931808
v -172.65650940 134.97004700 55.95048141
v -158.77684021 136.43060303 54.14341736
v -164.67065430 134.21328735 57.74707031
v -157.58454895 134.07929993 54.52010727
v -163.46585083 132.16346741 58.19577408
v -169.39814758 133.87258911 58.82395935
v -169.30830383 134.48822021 57.94150925
v -156.00083923 130.82275391 40.52154160
v -152.61886597 129.75508118 43.68141174
v -154.28878784 129.30455017 43.68593216
v -162.38520813 126.89770508 49.30662537
v -151.18199158 130.32951355 46.65365219
v -152.58294678 133.07426453 50.79568863
v -157.91770935 131.11688232 53.79734802
v -159.66654968 128.35379028 52.36429214
v -163.09394836 129.78776550 57.20157242
v -163.16598511 128.39572144 54.94724655
v -166.30610657 126.40182495 52.10721970
v -167.62689209 129.50888062 57.59869003
v -168.57566833 131.56831360 59.00815582
v -171.58836365 128.33776855 55.76424789
v -166.82354736 128.01208496 56.04489517
v -169.75415039 127.16365051 54.53014755
v -133.79255676 95.94248962 35.04912186
v -135.27519226 94.13745117 47.13467407
v -133.78765869 92.66450500 50.20136642
v -130.58152771 92.44284821 50.62079620
v -131.61140442 93.20168304 47.36209869
v -129.97850037 103.66872406 44.86028290
v -133.49801636 100.39386749 44.38385391
v -129.37118530 100.10619354 42.96510696
v -125.67967224 102.99069977 42.99862289
v -126.39547729 105.14523315 48.16985321
v -122.09099579 104.26837158 46.42867279
v -123.50572968 101.79821014 41.03651810
v -127.33567047 98.73430634 41.46622086
v -121.67325592 87.97607422 34.58792877
v -116.48501587 88.92235565 33.09204483
v -108.12997437 78.46997070 43.52034760
v -111.67587280 76.33271027 45.82792664
v -116.12818146 82.55341339 46.48617554
v -111.99735260 83.23059845 46.39326096
v -134.99780273 97.09625244 45.30268097
v -131.71246338 96.19952393 44.42055511
v -119.92313385 92.89090729 53.83531952
v -123.89949036 91.03067780 52.98754120
v -127.96528625 91.68428040 53.39319229
v -125.04455566 93.43344879 55.73664856
v -116.79563141 77.98293304 44.92486191
v -120.65412903 80.31372070 43.48649216
v -122.41721344 84.32504272 42.25433731
v -120.43324280 83.70237732 45.38349152
v -124.43134308 86.76321411 39.07055283
v -117.31076813 95.82564545 52.81663513
v -116.05313873 100.30264282 49.35119247
v -106.56806946 86.78433228 41.26225281
v -108.07001495 84.07713318 44.23992920
v -129.79638672 96.23975372 44.13581848
v -127.33772278 91.45383453 50.53660202
v -129.40093994 93.58534241 47.56422806
v -118.55072021 102.71697998 43.98556900
v -120.91918182 102.09385681 51.98808670
v -134.62423706 99.45962524 60.24944687
v -126.26400757 98.45472717 56.73322678
v -128.87025452 94.40999603 56.47428894
v -135.54762268 96.55491638 59.86842346
v -121.95461273 97.01343536 55.22934341
v -125.67279053 102.98866272 53.94555664
v -141.86038208 94.96929169 49.89793396
v -139.14550781 93.49948120 53.90082932
v -142.36856079 97.44097900 48.36364746
v -110.43584442 89.14083862 35.23518753
v -139.69244385 104.15175629 49.79629898
v -142.16921997 100.69559479 48.41247177
v -131.71034241 92.57318115 53.52079010
v -136.98635864 94.08037567 57.52478027
v -134.56028748 103.26555634 58.48787689
v -135.76837158 105.81672668 53.42602539
v -139.98971558 102.14441681 60.58080673
v -141.04338074 105.08924103 55.82643890
v -144.00941467 102.80890656 51.53208542
v -144.06451416 99.51195526 49.86653519
v -143.75404358 96.70394135 49.62481308
v -139.10250854 98.05022430 61.70087814
v -139.02844238 95.38648224 61.04585648
v -139.16413879 93.39492035 58.33116150
v -143.20298767 96.39994049 62.62773132
v -146.23658752 98.90425110 61.17462158
v -155.76803589 91.71025085 53.35652542
v -152.33752441 94.49180603 52.52784729
v -152.54980469 95.11940765 53.50627136
v -156.19715881 92.49626160 53.77773285
v -148.52236938 98.94545746 52.72372818
v -149.56224060 98.43521118 53.97228622
v -147.78128052 100.06883240 56.75171280
v -152.51113892 96.40839386 57.21977234
v -150.77003479 94.84986877 61.47634125
v -154.59379578 92.25891113 61.32616806
v -156.02261353 94.03008270 57.74232101
v -148.09577942 98.56301880 60.32516861
v -158.68339539 91.25717163 54.92610168
v -159.48461914 90.09046936 54.50133133
v -146.31301880 101.91544342 56.50217819
v -146.82652283 96.67639160 50.38090897
v -152.30503845 92.34735870 51.23354340
v -156.63555908 89.41756439 52.54100418
v -159.25886536 88.01773071 54.83029938
v -150.64340210 90.73236084 51.08326340
v -155.46467590 87.61681366 52.37327576
v -157.78356934 86.30922699 54.70956039
v -148.59539795 88.81079865 52.35891724
v -153.61979675 86.51417542 53.53261566
v -143.27581787 92.25716400 51.88583374
v -145.34863281 94.12491608 50.35226059
v -156.08892822 85.99560547 55.01742935
v -160.01480103 90.26921082 58.07606506
v -159.24707031 87.66006470 57.79177856
v -159.12548828 91.57244110 58.21683121
v -149.91134644 94.35329437 62.32839584
v -154.49295044 91.09172058 62.13242340
v -148.52507019 92.78357697 62.93610382
v -153.73619080 89.31724548 62.13084412
v -158.07524109 89.77720642 60.96422577
v -157.43193054 91.38509369 60.39349747
v -142.67358398 93.68614197 51.43305206
v -140.77835083 92.99062347 54.52503204
v -141.66313171 91.62201691 55.46795654
v -146.78330994 88.04258728 55.68047333
v -140.65954590 92.31911469 59.39109802
v -141.59185791 94.26540375 61.92892456
v -147.48348999 90.78620148 62.09497833
v -146.73187256 88.80122375 59.85040665
v -153.17384338 87.68227386 61.20478821
v -151.88093567 86.34650421 59.23688126
v -151.95256042 85.73848724 56.15454865
v -156.60926819 86.60977173 59.34625626
v -157.66159058 87.68212128 60.24515533
v -157.81684875 86.30885315 57.38409424
v -155.29281616 85.83879089 58.38467026
v -155.67501831 85.72091675 56.81350327
v -106.92991638 81.20143127 42.16735840
v -187.70843506 -2.13979936 19.76046371
v -187.31048584 2.08190465 22.32001495
v -177.33741760 -3.43916559 32.53949356
v -183.12181091 1.41884756 30.36443138
v -174.54747009 -10.23430729 31.07085991
v -176.94705200 -17.55613518 23.93827248
v -173.93290710 -14.56711483 27.38606453
v -186.00054932 2.87916517 26.56303024
v -185.56224060 -7.76324034 18.53251076
v -180.98330688 -14.74669552 19.68021965
v -195.32661438 -11.55935574 27.58260536
v -189.08741760 -19.04752922 28.40745735
v -182.43051147 -20.46689415 32.93296432
v -177.80131531 -15.58112717 32.54930115
v -176.74096680 -11.71419430 33.69161606
v -193.02183533 -3.32362580 25.26533699
v -191.70097351 0.90861690 26.40985680
v -187.89888000 1.78951025 29.51271439
v -195.44367981 -0.55207682 32.91856003
v -192.73710632 -0.27914718 40.82771301
v -177.32545471 3.08177257 50.18644714
v -178.24464417 -1.98089707 45.74240112
v -180.55245972 -1.81259215 46.37991714
v -179.34497070 2.66449523 50.59009171
v -180.93531799 -6.78607845 43.42058182
v -182.70323181 -5.04170370 43.77139282
v -187.50604248 -4.28020954 42.06938934
v -185.79156494 0.43749064 46.46043396
v -190.02357483 -0.11851639 41.54376602
v -189.04299927 4.38845158 43.86518097
v -184.26586914 4.97177219 50.24294662
v -180.23918152 5.47509623 53.32139969
v -182.92373657 8.58852291 53.27129364
v -178.22302246 7.28896999 53.31066895
v -190.69790649 -7.62356424 43.68037796
v -177.61178589 -9.86072445 39.44988632
v -175.68801880 -1.93339956 44.07303238
v -175.06521606 4.61229706 48.64923477
v -176.75894165 9.34976387 51.73586273
v -174.23516846 0.86164105 41.93688202
v -174.54080200 6.86120605 45.71380997
v -176.79844666 11.39053726 48.19408798
v -175.32568359 4.94975948 39.58488083
v -176.26863098 9.42703342 43.60347366
v -176.20146179 -2.33519459 32.84593582
v -175.21232605 -7.92446375 35.31232071
v -177.57969666 11.68718529 46.08865738
v -182.28430176 11.14763737 54.19858551
v -181.01242065 13.14526749 52.08626556
v -190.63658142 6.04297972 42.11591339
v -187.95808411 8.47434235 47.66726685
v -188.26780701 10.51426697 46.37101364
v -190.85931396 7.70426893 39.25230408
v -188.04130554 12.46725368 44.68234634
v -185.86824036 12.52511501 50.65341949
v -185.89564514 9.76354980 50.95056534
v -178.14132690 -5.46258307 34.03556442
v -182.87411499 -0.42758510 32.39245224
v -181.24937439 1.53708458 30.46922684
v -179.67332458 8.78197289 37.14632416
v -186.89733887 4.86428642 29.77572250
v -192.22421265 2.88852668 30.41894341
v -189.10733032 9.95116329 37.27510834
v -185.14076233 10.35184002 36.11079025
v -186.15803528 13.55086613 42.56468201
v -183.87710571 13.12546825 41.49596405
v -179.46646118 12.16783047 42.26642990
v -183.62879944 14.73812389 46.57014465
v -185.20539856 14.42027092 48.74219131
v -180.19032288 13.91053963 48.48929596
v -182.67282104 13.95099640 44.60381699
v -180.00845337 13.26422405 45.67382812
v -111.15170288 68.71674347 45.55782700
v -117.17991638 69.61027527 44.70659637
v -115.20393372 61.98803329 44.18205643
v -112.21845245 52.16722488 42.00252914
v -104.19808197 43.82339859 40.78496552
v -117.47008514 52.18804932 38.84674454
v -120.49895477 62.06587982 41.28676987
v -123.57880402 73.04547119 41.41837311
v -118.80277252 44.43941498 32.52941132
f 4 3 1
f 1 3 2
f 5 8 6
f 6 8 7
f 9 10 4
f 4 10 3
f 9 13 11
f 11 13 12
f 14 16 12
f 12 16 15
f 20 19 17
f 17 19 18
f 24 23 21
f 21 23 22
f 28 27 25
f 25 27 26
f 32 31 29
f 29 31 30
f 33 36 34
f 34 36 35
f 37 40 38
f 38 40 39
f 41 6 42
f 42 6 43
f 6 7 43
f 43 7 44
f 45 46 34
f 34 46 33
f 50 49 47
f 47 49 48
f 54 53 51
f 51 53 52
f 51 52 55
f 55 52 56
f 60 59 57
f 57 59 58
f 1 62 4
f 4 62 61
f 66 65 63
f 63 65 64
f 70 69 67
f 67 69 68
f 74 73 71
f 71 73 72
f 78 77 75
f 75 77 76
f 80 79 54
f 54 79 53
f 84 83 81
f 81 83 82
f 85 52 86
f 86 52 53
f 88 60 87
f 87 60 57
f 44 90 43
f 43 90 89
f 91 42 89
f 89 42 43
f 93 39 92
f 92 39 40
f 69 70 64
f 64 70 94
f 4 61 9
f 9 61 13
f 25 69 28
f 28 69 95
f 69 25 68
f 68 25 96
f 100 99 97
f 97 99 98
f 101 104 102
f 102 104 103
f 29 30 105
f 105 30 106
f 108 54 107
f 107 54 51
f 109 80 108
f 108 80 54
f 113 112 110
f 110 112 111
f 116 5 114
f 114 5 115
f 115 5 41
f 41 5 6
f 36 111 35
f 35 111 117
f 35 117 118
f 118 117 119
f 34 35 120
f 120 35 118
f 34 120 45
f 45 120 121
f 127 126 124
f 124 126 125
f 130 129 14
f 14 129 128
f 132 131 46
f 46 131 33
f 64 94 63
f 63 94 133
f 134 137 135
f 135 137 136
f 141 140 138
f 138 140 139
f 143 142 78
f 78 142 77
f 144 20 145
f 145 20 146
f 72 149 147
f 147 149 148
f 153 152 150
f 150 152 151
f 104 101 83
f 83 101 82
f 101 155 82
f 82 155 154
f 59 157 58
f 58 157 156
f 67 68 147
f 147 68 158
f 159 15 146
f 146 15 16
f 160 158 96
f 96 158 68
f 65 66 130
f 130 66 129
f 164 163 161
f 161 163 162
f 168 167 165
f 165 167 166
f 172 171 169
f 169 171 170
f 170 171 173
f 173 171 174
f 178 177 175
f 175 177 176
f 24 181 179
f 179 181 180
f 184 183 21
f 21 183 182
f 154 185 82
f 82 185 81
f 186 188 187
f 187 188 144
f 189 71 160
f 160 71 158
f 59 135 157
f 157 135 190
f 140 172 139
f 139 172 169
f 71 72 158
f 158 72 147
f 194 193 191
f 191 193 192
f 167 49 166
f 166 49 195
f 157 190 50
f 50 190 196
f 197 200 198
f 198 200 199
f 181 24 182
f 182 24 21
f 17 159 20
f 20 159 146
f 185 181 81
f 81 181 182
f 181 185 180
f 180 185 201
f 84 203 83
f 83 203 202
f 85 206 204
f 204 206 205
f 21 22 184
f 184 22 207
f 23 24 208
f 208 24 179
f 205 209 179
f 179 209 208
f 206 210 205
f 205 210 209
f 210 206 211
f 211 206 212
f 204 205 180
f 180 205 179
f 213 88 176
f 176 88 214
f 206 85 212
f 212 85 86
f 193 218 217
f 220 219 218
f 218 219 217
f 17 18 220
f 220 18 219
f 144 221 20
f 20 221 19
f 222 225 223
f 223 225 224
f 214 226 176
f 176 226 175
f 88 87 214
f 214 87 227
f 159 17 228
f 228 17 220
f 134 60 213
f 213 60 88
f 152 229 151
f 151 229 138
f 211 192 210
f 210 192 193
f 193 194 218
f 218 194 230
f 230 232 228
f 228 232 231
f 89 234 91
f 91 234 233
f 235 93 236
f 236 93 92
f 237 232 234
f 234 232 230
f 239 238 48
f 48 238 47
f 236 191 235
f 235 191 240
f 241 8 116
f 116 8 5
f 160 243 189
f 189 243 242
f 99 245 98
f 98 245 244
f 238 246 47
f 47 246 156
f 248 247 77
f 77 247 76
f 124 125 249
f 249 125 250
f 254 253 251
f 251 253 252
f 111 36 110
f 110 36 255
f 256 255 33
f 33 255 36
f 257 154 258
f 258 154 155
f 139 169 133
f 133 169 63
f 66 63 170
f 170 63 169
f 66 170 129
f 129 170 173
f 259 128 173
f 173 128 129
f 261 260 259
f 259 260 128
f 213 262 134
f 134 262 137
f 187 264 186
f 186 264 263
f 266 265 113
f 113 265 112
f 11 268 267
f 194 233 230
f 230 233 234
f 67 269 70
f 70 269 153
f 141 178 165
f 165 178 175
f 70 153 94
f 94 153 150
f 207 221 270
f 270 221 271
f 152 153 272
f 272 153 269
f 108 45 109
f 109 45 121
f 157 50 156
f 156 50 47
f 274 273 58
f 58 273 57
f 261 275 260
f 260 275 145
f 78 149 143
f 143 149 276
f 272 269 75
f 75 269 148
f 278 277 270
f 270 277 207
f 50 196 49
f 49 196 195
f 59 60 135
f 135 60 134
f 83 202 104
f 104 202 279
f 75 148 78
f 78 148 149
f 277 278 248
f 248 278 247
f 81 182 84
f 84 182 183
f 282 239 281
f 281 239 48
f 222 223 283
f 283 223 227
f 168 226 224
f 224 226 223
f 225 282 224
f 224 282 281
f 226 168 175
f 175 168 165
f 229 263 138
f 138 263 264
f 260 16 128
f 128 16 14
f 220 218 228
f 228 218 230
f 283 227 284
f 284 227 87
f 146 16 145
f 145 16 260
f 155 98 258
f 258 98 244
f 246 274 156
f 156 274 58
f 55 285 51
f 51 285 107
f 96 286 160
f 160 286 243
f 90 237 89
f 89 237 234
f 285 132 107
f 107 132 46
f 253 249 252
f 252 249 250
f 25 26 96
f 96 26 286
f 288 105 287
f 287 105 106
f 229 152 289
f 289 152 272
f 138 139 151
f 151 139 133
f 162 290 161
f 161 290 183
f 293 292 277
f 277 292 291
f 94 150 133
f 133 150 151
f 262 177 275
f 275 177 187
f 275 187 145
f 145 187 144
f 273 284 57
f 57 284 87
f 135 136 190
f 190 136 174
f 111 112 117
f 117 112 38
f 117 38 119
f 119 38 123
f 37 38 265
f 265 38 112
f 251 288 254
f 254 288 287
f 15 159 231
f 231 159 228
f 214 227 226
f 226 227 223
f 269 67 148
f 148 67 147
f 167 168 281
f 281 168 224
f 162 163 200
f 200 163 199
f 107 46 108
f 108 46 45
f 49 167 48
f 48 167 281
f 292 164 291
f 291 164 161
f 38 39 123
f 248 294 277
f 277 294 293
f 284 296 283
f 283 296 295
f 297 296 273
f 273 296 284
f 274 298 273
f 273 298 297
f 246 299 274
f 274 299 298
f 283 295 222
f 222 295 300
f 222 300 225
f 225 300 301
f 301 302 225
f 225 302 282
f 303 300 304
f 304 300 295
f 308 307 305
f 305 307 306
f 305 310 308
f 308 310 309
f 308 312 307
f 307 312 311
f 315 314 312
f 312 314 313
f 313 316 312
f 312 316 311
f 316 304 311
f 311 304 317
f 315 312 309
f 309 312 308
f 318 321 319
f 319 321 320
f 319 309 318
f 318 309 310
f 311 317 307
f 307 317 306
f 296 297 317
f 317 297 306
f 306 297 322
f 322 297 298
f 305 306 323
f 323 306 322
f 310 305 324
f 324 305 323
f 296 317 295
f 295 317 304
f 318 310 325
f 325 310 324
f 327 324 326
f 326 324 323
f 324 327 325
f 325 327 328
f 330 327 329
f 329 327 326
f 332 331 326
f 326 331 329
f 327 330 328
f 328 330 333
f 323 322 326
f 326 322 332
f 299 332 298
f 298 332 322
f 325 334 318
f 318 334 321
f 304 316 335
f 335 316 313
f 335 313 336
f 336 313 314
f 337 303 335
f 335 303 304
f 336 338 335
f 335 338 337
f 336 314 339
f 339 314 340
f 341 299 238
f 238 299 246
f 302 342 282
f 282 342 239
f 238 239 341
f 341 239 342
f 341 342 331
f 331 342 343
f 331 343 329
f 329 343 344
f 345 343 302
f 302 343 342
f 332 299 331
f 331 299 341
f 346 345 301
f 301 345 302
f 300 303 301
f 301 303 346
f 303 337 346
f 346 337 347
f 347 348 346
f 346 348 345
f 349 350 347
f 347 350 348
f 348 344 345
f 345 344 343
f 344 348 351
f 351 348 350
f 337 338 347
f 347 338 349
f 349 338 352
f 352 338 353
f 356 355 354
f 354 355 352
f 350 349 355
f 355 349 352
f 352 353 354
f 354 353 334
f 321 334 339
f 339 334 353
f 338 336 353
f 353 336 339
f 351 330 344
f 344 330 329
f 356 333 351
f 351 333 330
f 356 351 355
f 355 351 350
f 354 328 356
f 356 328 333
f 334 325 354
f 354 325 328
f 320 315 319
f 319 315 309
f 320 321 340
f 340 321 339
f 314 315 340
f 340 315 320
f 137 261 136
f 136 261 259
f 165 166 141
f 141 166 140
f 196 171 195
f 195 171 172
f 190 174 196
f 196 174 171
f 187 177 264
f 264 177 178
f 166 195 140
f 140 195 172
f 275 261 262
f 262 261 137
f 138 264 141
f 141 264 178
f 262 213 177
f 177 213 176
f 173 174 259
f 259 174 136
f 360 359 357
f 357 359 358
f 364 363 361
f 361 363 362
f 366 364 365
f 365 364 361
f 367 370 368
f 368 370 369
f 372 371 247
f 247 371 76
f 363 374 362
f 362 374 373
f 378 377 375
f 375 377 376
f 289 380 229
f 229 380 379
f 229 379 263
f 263 379 381
f 385 384 382
f 382 384 383
f 363 368 374
f 374 368 386
f 76 371 289
f 289 371 380
f 377 359 376
f 376 359 387
f 374 386 360
f 360 386 388
f 389 366 383
f 383 366 390
f 394 393 391
f 391 393 392
f 383 390 382
f 382 390 395
f 366 365 390
f 390 365 396
f 364 366 367
f 367 366 389
f 398 397 358
f 358 397 357
f 397 399 357
f 357 399 373
f 389 400 367
f 367 400 370
f 372 385 375
f 375 385 382
f 374 360 373
f 373 360 357
f 402 401 362
f 362 401 361
f 360 388 359
f 359 388 387
f 363 364 368
f 368 364 367
f 404 398 403
f 403 398 358
f 391 392 405
f 405 392 396
f 378 395 393
f 393 395 392
f 393 394 403
f 403 394 404
f 395 378 382
f 382 378 375
f 405 396 406
f 406 396 365
f 399 402 373
f 373 402 362
f 384 270 400
f 400 270 271
f 401 406 361
f 361 406 365
f 368 369 386
f 386 369 381
f 390 396 395
f 395 396 392
f 377 378 403
f 403 378 393
f 359 377 358
f 358 377 403
f 406 408 405
f 405 408 407
f 409 408 401
f 401 408 406
f 410 409 402
f 402 409 401
f 411 410 399
f 399 410 402
f 405 407 391
f 391 407 412
f 391 412 394
f 394 412 413
f 414 404 413
f 413 404 394
f 415 412 416
f 416 412 407
f 420 419 417
f 417 419 418
f 419 422 418
f 418 422 421
f 419 424 422
f 422 424 423
f 427 426 424
f 424 426 425
f 425 428 424
f 424 428 423
f 427 424 420
f 420 424 419
f 420 417 429
f 429 417 430
f 423 431 422
f 422 431 421
f 408 409 431
f 431 409 421
f 421 409 432
f 432 409 410
f 418 421 433
f 433 421 432
f 434 417 433
f 433 417 418
f 428 416 423
f 423 416 431
f 408 431 407
f 407 431 416
f 417 434 430
f 430 434 435
f 437 434 436
f 436 434 433
f 434 437 435
f 435 437 438
f 440 437 439
f 439 437 436
f 442 441 436
f 436 441 439
f 438 437 443
f 443 437 440
f 432 442 433
f 433 442 436
f 411 442 410
f 410 442 432
f 435 445 430
f 430 445 444
f 430 444 429
f 429 444 446
f 416 428 447
f 447 428 425
f 426 448 425
f 425 448 447
f 449 415 447
f 447 415 416
f 450 449 448
f 448 449 447
f 426 452 448
f 448 452 451
f 446 444 452
f 452 444 451
f 453 411 397
f 397 411 399
f 414 454 404
f 404 454 398
f 397 398 453
f 453 398 454
f 453 454 441
f 441 454 455
f 441 455 439
f 439 455 456
f 457 455 414
f 414 455 454
f 441 442 453
f 453 442 411
f 458 457 413
f 413 457 414
f 412 415 413
f 413 415 458
f 458 415 459
f 459 415 449
f 459 460 458
f 458 460 457
f 461 462 459
f 459 462 460
f 460 456 457
f 457 456 455
f 456 460 463
f 463 460 462
f 450 461 449
f 449 461 459
f 461 450 464
f 464 450 465
f 468 467 466
f 466 467 464
f 462 461 467
f 467 461 464
f 464 465 466
f 466 465 445
f 444 445 451
f 451 445 465
f 450 448 465
f 465 448 451
f 463 440 456
f 456 440 439
f 468 443 463
f 463 443 440
f 468 463 467
f 467 463 462
f 466 438 468
f 468 438 443
f 445 435 466
f 466 435 438
f 446 427 429
f 429 427 420
f 426 427 452
f 452 427 446
f 370 188 369
f 369 188 186
f 375 376 372
f 372 376 371
f 388 379 387
f 387 379 380
f 386 381 388
f 388 381 379
f 270 384 278
f 278 384 385
f 376 387 371
f 371 387 380
f 400 271 370
f 370 271 188
f 247 278 372
f 372 278 385
f 400 389 384
f 384 389 383
f 263 381 186
f 186 381 369
f 221 144 271
f 271 144 188
f 22 19 207
f 207 19 221
f 23 18 22
f 22 18 19
f 208 219 23
f 23 219 18
f 469 472 470
f 470 472 471
f 476 475 473
f 473 475 474
f 478 476 477
f 477 476 473
f 482 481 479
f 479 481 480
f 475 484 474
f 474 484 483
f 488 487 485
f 485 487 486
f 142 490 77
f 77 490 489
f 77 489 248
f 248 489 491
f 495 494 492
f 492 494 493
f 475 480 484
f 484 480 496
f 471 497 487
f 487 497 486
f 484 496 472
f 472 496 498
f 499 478 493
f 493 478 500
f 501 504 502
f 502 504 503
f 493 500 492
f 492 500 505
f 478 477 500
f 500 477 506
f 476 478 479
f 479 478 499
f 508 507 470
f 470 507 469
f 507 509 469
f 469 509 483
f 510 482 499
f 499 482 479
f 511 495 485
f 485 495 492
f 483 484 469
f 469 484 472
f 513 512 474
f 474 512 473
f 472 498 471
f 471 498 497
f 475 476 480
f 480 476 479
f 515 508 514
f 514 508 470
f 501 502 516
f 516 502 506
f 503 488 502
f 502 488 505
f 504 515 503
f 503 515 514
f 505 488 492
f 492 488 485
f 516 506 517
f 517 506 477
f 509 513 483
f 483 513 474
f 510 494 292
f 292 494 164
f 512 517 473
f 473 517 477
f 480 481 496
f 496 481 491
f 500 506 505
f 505 506 502
f 487 488 514
f 514 488 503
f 471 487 470
f 470 487 514
f 517 519 516
f 516 519 518
f 520 519 512
f 512 519 517
f 521 520 513
f 513 520 512
f 522 521 509
f 509 521 513
f 516 518 501
f 501 518 523
f 501 523 504
f 504 523 524
f 524 525 504
f 504 525 515
f 526 523 527
f 527 523 518
f 531 530 528
f 528 530 529
f 530 533 529
f 529 533 532
f 530 535 533
f 533 535 534
f 538 537 535
f 535 537 536
f 536 539 535
f 535 539 534
f 538 535 531
f 531 535 530
f 528 541 531
f 531 541 540
f 542 532 534
f 534 532 533
f 519 520 542
f 542 520 532
f 532 520 543
f 543 520 521
f 529 532 544
f 544 532 543
f 528 529 545
f 545 529 544
f 534 539 542
f 542 539 527
f 519 542 518
f 518 542 527
f 541 528 546
f 546 528 545
f 547 548 544
f 544 548 545
f 548 549 545
f 545 549 546
f 550 551 547
f 547 551 548
f 547 553 550
f 550 553 552
f 549 548 554
f 554 548 551
f 544 543 547
f 547 543 553
f 522 553 521
f 521 553 543
f 546 556 541
f 541 556 555
f 541 555 540
f 540 555 557
f 527 539 558
f 558 539 536
f 537 559 536
f 536 559 558
f 560 526 558
f 558 526 527
f 559 561 558
f 558 561 560
f 559 537 562
f 562 537 563
f 557 555 563
f 563 555 562
f 564 522 507
f 507 522 509
f 525 565 515
f 515 565 508
f 507 508 564
f 564 508 565
f 564 565 552
f 552 565 566
f 552 566 550
f 550 566 567
f 568 566 525
f 525 566 565
f 553 522 552
f 552 522 564
f 569 568 524
f 524 568 525
f 523 526 524
f 524 526 569
f 526 560 569
f 569 560 570
f 570 571 569
f 569 571 568
f 572 573 570
f 570 573 571
f 571 567 568
f 568 567 566
f 567 571 574
f 574 571 573
f 561 572 560
f 560 572 570
f 572 561 575
f 575 561 576
f 579 578 577
f 577 578 575
f 573 572 578
f 578 572 575
f 575 576 577
f 577 576 556
f 555 556 562
f 562 556 576
f 561 559 576
f 576 559 562
f 574 551 567
f 567 551 550
f 579 554 574
f 574 554 551
f 579 574 578
f 578 574 573
f 549 554 577
f 577 554 579
f 556 546 577
f 577 546 549
f 557 538 540
f 540 538 531
f 537 538 563
f 563 538 557
f 293 294 482
f 482 294 481
f 485 486 511
f 511 486 580
f 498 489 497
f 497 489 490
f 496 491 498
f 498 491 489
f 163 164 495
f 495 164 494
f 580 486 490
f 490 486 497
f 292 293 510
f 510 293 482
f 199 163 511
f 511 163 495
f 499 493 510
f 510 493 494
f 248 491 294
f 294 491 481
f 584 583 581
f 581 583 582
f 588 587 585
f 585 587 586
f 590 588 589
f 589 588 585
f 594 593 591
f 591 593 592
f 595 598 596
f 596 598 597
f 587 600 586
f 586 600 599
f 601 604 602
f 602 604 603
f 605 608 606
f 606 608 607
f 606 607 200
f 200 607 609
f 610 613 611
f 611 613 612
f 600 587 614
f 614 587 592
f 596 597 605
f 605 597 608
f 583 615 603
f 603 615 602
f 600 614 584
f 584 614 616
f 590 618 617
f 617 618 611
f 622 621 619
f 619 621 620
f 618 623 611
f 611 623 610
f 590 589 618
f 618 589 624
f 588 590 591
f 591 590 617
f 626 625 582
f 582 625 581
f 625 627 581
f 581 627 599
f 628 594 617
f 617 594 591
f 601 598 610
f 610 598 613
f 600 584 599
f 599 584 581
f 630 629 586
f 586 629 585
f 584 616 583
f 583 616 615
f 587 588 592
f 592 588 591
f 632 626 631
f 631 626 582
f 619 620 633
f 633 620 624
f 621 604 620
f 620 604 623
f 622 632 621
f 621 632 631
f 610 623 601
f 601 623 604
f 633 624 634
f 634 624 589
f 627 630 599
f 599 630 586
f 612 202 628
f 628 202 203
f 629 634 585
f 585 634 589
f 592 593 614
f 614 593 609
f 618 624 623
f 623 624 620
f 631 603 621
f 621 603 604
f 582 583 631
f 631 583 603
f 634 636 633
f 633 636 635
f 637 636 629
f 629 636 634
f 638 637 630
f 630 637 629
f 639 638 627
f 627 638 630
f 633 635 619
f 619 635 640
f 619 640 622
f 622 640 641
f 641 642 622
f 622 642 632
f 640 635 643
f 643 635 644
f 645 648 646
f 646 648 647
f 647 650 646
f 646 650 649
f 647 652 650
f 650 652 651
f 652 655 653
f 653 655 654
f 653 656 652
f 652 656 651
f 655 652 648
f 648 652 647
f 648 645 657
f 657 645 658
f 659 649 651
f 651 649 650
f 636 637 659
f 659 637 649
f 649 637 660
f 660 637 638
f 649 660 646
f 646 660 661
f 662 645 661
f 661 645 646
f 651 656 659
f 659 656 644
f 636 659 635
f 635 659 644
f 645 662 658
f 658 662 663
f 664 665 661
f 661 665 662
f 665 666 662
f 662 666 663
f 667 668 664
f 664 668 665
f 664 670 667
f 667 670 669
f 666 665 671
f 671 665 668
f 661 660 664
f 664 660 670
f 639 670 638
f 638 670 660
f 673 672 663
f 663 672 658
f 658 672 657
f 657 672 674
f 644 656 675
f 675 656 653
f 676 675 654
f 654 675 653
f 675 677 644
f 644 677 643
f 676 678 675
f 675 678 677
f 654 680 676
f 676 680 679
f 674 672 680
f 680 672 679
f 681 639 625
f 625 639 627
f 642 682 632
f 632 682 626
f 681 625 682
f 682 625 626
f 682 683 681
f 681 683 669
f 683 684 669
f 669 684 667
f 685 683 642
f 642 683 682
f 670 639 669
f 669 639 681
f 686 685 641
f 641 685 642
f 641 640 686
f 686 640 643
f 686 643 687
f 687 643 677
f 687 688 686
f 686 688 685
f 689 690 687
f 687 690 688
f 688 684 685
f 685 684 683
f 684 688 691
f 691 688 690
f 678 689 677
f 677 689 687
f 689 678 692
f 692 678 693
f 696 695 694
f 694 695 692
f 690 689 695
f 695 689 692
f 692 693 694
f 694 693 673
f 672 673 679
f 679 673 693
f 678 676 693
f 693 676 679
f 684 691 667
f 667 691 668
f 696 671 691
f 691 671 668
f 696 691 695
f 695 691 690
f 694 666 696
f 696 666 671
f 673 663 694
f 694 663 666
f 674 655 657
f 657 655 648
f 654 655 680
f 680 655 674
f 290 162 594
f 594 162 593
f 598 601 597
f 597 601 602
f 615 616 608
f 608 616 607
f 614 609 616
f 616 609 607
f 598 595 613
f 613 595 697
f 597 602 608
f 608 602 615
f 203 290 628
f 628 290 594
f 628 617 612
f 612 617 611
f 200 609 162
f 162 609 593
f 699 29 698
f 698 29 105
f 268 701 126
f 126 701 700
f 126 700 125
f 125 700 702
f 704 703 250
f 250 703 252
f 32 705 268
f 268 705 701
f 698 105 706
f 706 105 288
f 29 699 32
f 32 699 705
f 707 706 251
f 251 706 288
f 702 704 125
f 125 704 250
f 703 707 252
f 252 707 251
f 709 708 707
f 707 708 706
f 710 709 703
f 703 709 707
f 711 710 704
f 704 710 703
f 712 711 702
f 702 711 704
f 706 708 698
f 698 708 713
f 698 713 699
f 699 713 714
f 715 705 714
f 714 705 699
f 713 708 716
f 716 708 717
f 721 720 718
f 718 720 719
f 720 723 719
f 719 723 722
f 720 725 723
f 723 725 724
f 727 726 725
f 725 726 724
f 728 725 721
f 721 725 720
f 730 728 729
f 729 728 721
f 718 731 721
f 721 731 729
f 724 732 723
f 723 732 722
f 709 710 732
f 732 710 722
f 722 710 733
f 733 710 711
f 719 722 734
f 734 722 733
f 718 719 735
f 735 719 734
f 724 726 732
f 732 726 717
f 709 732 708
f 708 732 717
f 731 718 736
f 736 718 735
f 737 738 734
f 734 738 735
f 738 739 735
f 735 739 736
f 740 741 737
f 737 741 738
f 737 743 740
f 740 743 742
f 739 738 744
f 744 738 741
f 734 733 737
f 737 733 743
f 712 743 711
f 711 743 733
f 736 746 731
f 731 746 745
f 731 745 729
f 729 745 730
f 717 726 747
f 747 726 727
f 748 749 727
f 727 749 747
f 747 750 717
f 717 750 716
f 749 751 747
f 747 751 750
f 749 748 752
f 752 748 753
f 730 745 753
f 753 745 752
f 727 725 748
f 748 725 728
f 748 728 753
f 753 728 730
f 700 754 702
f 702 754 712
f 705 715 701
f 701 715 755
f 754 700 755
f 755 700 701
f 755 756 754
f 754 756 742
f 756 757 742
f 742 757 740
f 758 756 715
f 715 756 755
f 743 712 742
f 742 712 754
f 759 758 714
f 714 758 715
f 714 713 759
f 759 713 716
f 759 716 760
f 760 716 750
f 760 761 759
f 759 761 758
f 762 763 760
f 760 763 761
f 761 757 758
f 758 757 756
f 757 761 764
f 764 761 763
f 751 762 750
f 750 762 760
f 762 751 765
f 765 751 766
f 767 769 765
f 765 769 768
f 763 762 768
f 768 762 765
f 765 766 767
f 767 766 746
f 745 746 752
f 752 746 766
f 751 749 766
f 766 749 752
f 757 764 740
f 740 764 741
f 769 744 764
f 764 744 741
f 769 764 768
f 768 764 763
f 767 739 769
f 769 739 744
f 746 736 767
f 767 736 739
f 209 217 208
f 208 217 219
f 209 210 217
f 217 210 193
f 511 580 199
f 199 580 198
f 76 289 75
f 75 289 272
f 184 207 291
f 291 207 277
f 84 183 203
f 203 183 290
f 198 580 142
f 142 580 490
f 142 143 198
f 198 143 197
f 73 276 72
f 72 276 149
f 104 279 103
f 103 279 770
f 770 279 596
f 596 279 595
f 605 771 596
f 596 771 770
f 771 772 770
f 770 772 103
f 772 773 103
f 103 773 102
f 102 774 101
f 101 774 155
f 773 97 102
f 102 97 774
f 97 773 100
f 100 773 775
f 773 772 775
f 775 772 776
f 772 771 776
f 776 771 777
f 200 197 606
f 606 197 777
f 74 71 778
f 778 71 189
f 155 774 98
f 98 774 97
f 291 161 184
f 184 161 183
f 143 276 197
f 197 276 777
f 605 606 771
f 771 606 777
f 202 612 697
f 697 612 613
f 595 279 697
f 697 279 202
f 73 776 276
f 276 776 777
f 776 73 775
f 775 73 74
f 74 778 775
f 775 778 100
f 778 189 100
f 100 189 99
f 189 242 99
f 99 242 245
f 131 256 33
f 62 1 95
f 95 1 28
f 1 2 28
f 28 2 27
f 114 115 266
f 266 115 265
f 95 69 62
f 62 69 64
f 65 61 64
f 64 61 62
f 130 13 65
f 65 13 61
f 14 12 130
f 130 12 13
f 268 11 32
f 32 11 31
f 15 31 12
f 12 31 11
f 231 30 15
f 15 30 31
f 232 106 231
f 231 106 30
f 232 237 106
f 106 237 287
f 237 90 287
f 287 90 254
f 90 44 254
f 254 44 253
f 7 249 44
f 44 249 253
f 126 127 268
f 268 127 267
f 116 3 241
f 241 3 10
f 114 2 116
f 116 2 3
f 266 27 114
f 114 27 2
f 113 26 266
f 266 26 27
f 110 286 113
f 113 286 26
f 255 243 110
f 110 243 286
f 256 242 255
f 255 242 243
f 131 245 256
f 256 245 242
f 132 244 131
f 131 244 245
f 41 37 115
f 115 37 265
f 41 42 37
f 37 42 40
f 42 91 40
f 40 91 92
f 91 233 92
f 92 233 236
f 233 194 236
f 236 194 191
f 132 285 244
f 244 285 258
f 285 55 258
f 258 55 257
f 185 154 201
f 201 154 257
f 180 201 204
f 204 201 56
f 55 56 257
f 257 56 201
f 204 56 85
f 85 56 52
f 79 122 53
f 53 122 86
f 122 215 86
f 86 215 212
f 215 216 212
f 212 216 211
f 216 280 211
f 211 280 192
f 191 192 240
f 240 192 280
f 8 124 7
f 7 124 249
f 241 127 8
f 8 127 124
f 10 267 241
f 241 267 127
f 10 9 267
f 267 9 11
